<svg width="41" height="41" viewBox="0 0 41 41" fill="none" xmlns="http://www.w3.org/2000/svg">
<path d="M40.4857 22.5203C40.73 22.691 40.9024 22.9463 40.9693 23.2368C41.0362 23.5273 40.9929 23.8324 40.8479 24.0928L37.8956 29.2066C37.5927 29.7308 36.8979 29.9473 36.3535 29.6807L27.3374 25.312V41H22.7815V23.1015L13.508 18.6052L19.4762 8.25892L40.4857 22.5203ZM1.23905 4.62179C2.46669 2.49796 4.48703 0.948705 6.856 0.314544C9.22498 -0.319617 11.7487 0.0132157 13.8725 1.23989C15.9454 2.43631 17.3076 4.33692 17.9751 6.45631L11.1959 18.2064C9.0296 18.6895 6.70155 18.457 4.62407 17.2606C2.49991 16.0336 0.949947 14.0128 0.315136 11.6425C-0.319675 9.27232 0.0126648 6.74688 1.23905 4.62179Z" fill="black"/>
</svg>
