<svg width="49" height="47" viewBox="0 0 49 47" fill="none" xmlns="http://www.w3.org/2000/svg">
<path d="M29.6042 25.4583C29.0257 25.4583 28.5405 25.2703 28.1485 24.8943C27.7578 24.5196 27.5625 24.0549 27.5625 23.5C27.5625 22.9451 27.7578 22.4797 28.1485 22.1037C28.5405 21.729 29.0257 21.5417 29.6042 21.5417C30.1826 21.5417 30.6672 21.729 31.0578 22.1037C31.4498 22.4797 31.6458 22.9451 31.6458 23.5C31.6458 24.0549 31.4498 24.5196 31.0578 24.8943C30.6672 25.2703 30.1826 25.4583 29.6042 25.4583ZM22.4583 25.4583C21.8799 25.4583 21.3946 25.2703 21.0026 24.8943C20.612 24.5196 20.4167 24.0549 20.4167 23.5C20.4167 22.9451 20.612 22.4797 21.0026 22.1037C21.3946 21.729 21.8799 21.5417 22.4583 21.5417C23.0368 21.5417 23.5214 21.729 23.912 22.1037C24.304 22.4797 24.5 22.9451 24.5 23.5C24.5 24.0549 24.304 24.5196 23.912 24.8943C23.5214 25.2703 23.0368 25.4583 22.4583 25.4583ZM15.3125 25.4583C14.734 25.4583 14.2495 25.2703 13.8588 24.8943C13.4668 24.5196 13.2708 24.0549 13.2708 23.5C13.2708 22.9451 13.4668 22.4797 13.8588 22.1037C14.2495 21.729 14.734 21.5417 15.3125 21.5417C15.891 21.5417 16.3762 21.729 16.7682 22.1037C17.1588 22.4797 17.3542 22.9451 17.3542 23.5C17.3542 24.0549 17.1588 24.5196 16.7682 24.8943C16.3762 25.2703 15.891 25.4583 15.3125 25.4583ZM42.875 23.5L33.9937 11.4562C33.6194 10.934 33.1349 10.526 32.5401 10.2323C31.9439 9.93854 31.3056 9.79166 30.625 9.79166H10.2083C9.08541 9.79166 8.12379 10.1755 7.32346 10.9432C6.52448 11.7095 6.125 12.6312 6.125 13.7083V33.2917C6.125 34.3687 6.52448 35.2911 7.32346 36.0588C8.12379 36.8251 9.08541 37.2083 10.2083 37.2083H30.625C31.3056 37.2083 31.9439 37.0615 32.5401 36.7677C33.1349 36.474 33.6194 36.066 33.9937 35.5437L42.875 23.5Z" fill="blue"/>
</svg>
