<svg width="57" height="60" viewBox="0 0 57 60" fill="none" xmlns="http://www.w3.org/2000/svg">
<path d="M23.1562 28.125V43.125L35.625 35.625L23.1562 28.125Z" fill="black"/>
<path d="M46.3125 52.5H10.6875C9.74296 52.499 8.83737 52.1036 8.16947 51.4006C7.50158 50.6975 7.12594 49.7443 7.125 48.75V22.5C7.12594 21.5057 7.50158 20.5525 8.16947 19.8494C8.83737 19.1464 9.74296 18.751 10.6875 18.75H46.3125C47.257 18.751 48.1626 19.1464 48.8305 19.8494C49.4984 20.5525 49.8741 21.5057 49.875 22.5V48.75C49.8741 49.7443 49.4984 50.6975 48.8305 51.4006C48.1626 52.1036 47.257 52.499 46.3125 52.5ZM10.6875 22.5V48.75H46.3125V22.5H10.6875ZM10.6875 11.25H46.3125V15H10.6875V11.25ZM14.25 3.75H42.75V7.5H14.25V3.75Z" fill="black"/>
</svg>
